<svg xmlns="http://www.w3.org/2000/svg" viewBox="0 70.06570434570312 171.9499969482422 46.31999969482422" data-asc="0.9052734375" width="171.9499969482422" height="46.31999969482422"><defs/><g><g fill="#c98f13"><g transform="translate(0, 0)"><path d=""/></g><g transform="translate(0, 60.595703125)"><path d="M0 45.26L13.75 9.47L18.85 9.47L33.50 45.26L28.10 45.26L23.93 34.42L8.96 34.42L5.03 45.26L0 45.26M10.33 30.57L22.46 30.57L18.73 20.65Q17.02 16.14 16.19 13.23Q15.50 16.67 14.26 20.07L10.33 30.57ZM53.54 45.26L53.54 41.99Q51.07 45.85 46.29 45.85Q43.19 45.85 40.59 44.14Q37.99 42.43 36.56 39.37Q35.13 36.30 35.13 32.32Q35.13 28.44 36.43 25.28Q37.72 22.12 40.31 20.43Q42.90 18.75 46.09 18.75Q48.44 18.75 50.27 19.74Q52.10 20.73 53.25 22.31L53.25 9.47L57.62 9.47L57.62 45.26L53.54 45.26M39.65 32.32Q39.65 37.30 41.75 39.77Q43.85 42.24 46.70 42.24Q49.58 42.24 51.60 39.88Q53.61 37.52 53.61 32.69Q53.61 27.37 51.56 24.88Q49.51 22.39 46.51 22.39Q43.58 22.39 41.61 24.78Q39.65 27.17 39.65 32.32ZM61.16 45.26L74.90 9.47L80.00 9.47L94.65 45.26L89.26 45.26L85.08 34.42L70.12 34.42L66.19 45.26L61.16 45.26M71.48 30.57L83.62 30.57L79.88 20.65Q78.17 16.14 77.34 13.23Q76.66 16.67 75.42 20.07L71.48 30.57ZM97.88 55.20L97.88 19.34L101.88 19.34L101.88 22.71Q103.30 20.73 105.08 19.74Q106.86 18.75 109.40 18.75Q112.72 18.75 115.26 20.46Q117.80 22.17 119.09 25.28Q120.39 28.39 120.39 32.10Q120.39 36.08 118.96 39.27Q117.53 42.46 114.81 44.15Q112.08 45.85 109.08 45.85Q106.88 45.85 105.14 44.92Q103.39 43.99 102.27 42.58L102.27 55.20L97.88 55.20M101.86 32.45Q101.86 37.45 103.88 39.84Q105.91 42.24 108.79 42.24Q111.72 42.24 113.81 39.76Q115.89 37.28 115.89 32.08Q115.89 27.12 113.85 24.66Q111.82 22.19 108.98 22.19Q106.18 22.19 104.02 24.82Q101.86 27.44 101.86 32.45ZM135.28 41.33L135.91 45.21Q134.06 45.61 132.59 45.61Q130.20 45.61 128.88 44.85Q127.56 44.09 127.03 42.86Q126.49 41.63 126.49 37.67L126.49 22.75L123.27 22.75L123.27 19.34L126.49 19.34L126.49 12.92L130.86 10.28L130.86 19.34L135.28 19.34L135.28 22.75L130.86 22.75L130.86 37.92Q130.86 39.79 131.09 40.33Q131.32 40.87 131.85 41.19Q132.37 41.50 133.35 41.50Q134.08 41.50 135.28 41.33ZM139.48 45.26L139.48 9.47L143.87 9.47L143.87 45.26L139.48 45.26ZM150.49 55.25L150 51.12Q151.44 51.51 152.51 51.51Q153.98 51.51 154.86 51.03Q155.74 50.54 156.30 49.66Q156.71 49.00 157.64 46.39Q157.76 46.02 158.03 45.31L148.19 19.34L152.93 19.34L158.33 34.35Q159.38 37.21 160.21 40.36Q160.96 37.33 162.01 34.45L167.55 19.34L171.95 19.34L162.08 45.70Q160.50 49.98 159.62 51.59Q158.45 53.76 156.93 54.77Q155.42 55.79 153.32 55.79Q152.05 55.79 150.49 55.25Z"/></g></g></g></svg>